<svg xmlns="http://www.w3.org/2000/svg" viewBox="0 0 680 680"><defs><style>.cls-1{fill:#00a99d;}.cls-2{fill:#754c24;}.cls-3,.cls-8{fill:#fff;}.cls-4,.cls-7{fill:#999;}.cls-4{stroke:#e6e6e6;}.cls-10,.cls-4,.cls-5,.cls-6,.cls-7,.cls-8,.cls-9{stroke-miterlimit:10;}.cls-5{fill:#f2f2f2;stroke:#f2f2f2;}.cls-6{fill:none;}.cls-10,.cls-6,.cls-9{stroke:#000;}.cls-10,.cls-6,.cls-8,.cls-9{stroke-width:3px;}.cls-7,.cls-8{stroke:#fff;}.cls-9{fill:#006ef4;}</style></defs><g id="Capa_5" data-name="Capa 5"><circle class="cls-1" cx="340" cy="340" r="340"/></g><g id="Capa_4" data-name="Capa 4"><path class="cls-2" d="M244.73,302H410.46A62.95,62.95,0,0,1,435,333V272a32.13,32.13,0,0,0-24.91-31.34H272.29s-27.56-1.91-27.56,28.73Z" transform="translate(-0.5 0.5)"/><path class="cls-3" d="M244.77,267.33c-2.86.06-.77,40.78-.77,40.78,0,29.22.19,76.11.77,146.78,0,0,3.66,23.91,23.78,23.91H411.26s22.87-1.84,22.87-23v-126c0-1.57-.07-14.11-10.23-22.06a26.84,26.84,0,0,0-16.3-5.53H270.38c-4.19,1.34-9.69,2.25-14.38-.26C243.11,295.1,245.58,267.31,244.77,267.33Z" transform="translate(-0.5 0.5)"/></g><g id="Capa_1" data-name="Capa 1"><path class="cls-4" d="M433,445c46.78,8.79,77.76,24.13,77.76,41.59C510.75,513.88,435,536,341.58,536S172.4,513.88,172.4,486.59c0-16.5,27.67-31.11,70.19-40.08" transform="translate(-0.5 0.5)"/><path class="cls-5" d="M433.6,444.56c46.78,8,77.76,22,77.76,37.91,0,24.88-75.74,45-169.17,45S173,507.35,173,482.47c0-15,27.67-28.35,70.19-36.54" transform="translate(-0.5 0.5)"/><path class="cls-3" d="M244.73,269.17c-.89,0-1.17,46.22,0,187.56,0,0,3.67,23.9,23.9,23.9H412.06A31.28,31.28,0,0,0,430,469a29.8,29.8,0,0,0,5.05-11.35v-126a28.81,28.81,0,0,0-1.31-8.64s-.06-.21-.14-.43C432.53,319.38,429,312.1,424,308s-10.87-4.72-15-5c-13.69-.92-66.82-1.5-139-1-4.12,1.44-8.5,2-12.4.26C244.48,296.5,245.54,269.15,244.73,269.17Z" transform="translate(-0.5 0.5)"/><path class="cls-6" d="M434.13,299.51v-32.4c0-14.1-10.33-25.53-23.06-25.53H267.79c-12.74,0-23.06,11.43-23.06,25.53V454.19c0,14.1,10.32,25.52,23.06,25.52H411.07c12.73,0,23.06-11.42,23.06-25.52v-126c0-14.1-10.33-25.53-23.06-25.53H255.76" transform="translate(-0.5 0.5)"/></g><g id="Capa_3" data-name="Capa 3"><path class="cls-7" d="M506.12,411a17.66,17.66,0,0,0,8.34,6.28,15.93,15.93,0,0,0,5.47.87h86.43c10.15,0,18.39-8.64,18.39-19.31h0c0-10.66-8.24-19.3-18.39-19.3H519.93l-4.78.66" transform="translate(-0.5 0.5)"/><rect class="cls-7" x="499.07" y="327" width="155.72" height="40.54" rx="18.39" transform="translate(1153.37 695.05) rotate(180)"/><rect class="cls-7" x="501.54" y="278.36" width="171.01" height="38.25" rx="18.39" transform="translate(1173.6 595.47) rotate(180)"/><path class="cls-8" d="M499.5,408.5a17.74,17.74,0,0,0,9.17,7.32,16.54,16.54,0,0,0,5.46.83h86.43A18.39,18.39,0,0,0,619,398.26h0a18.39,18.39,0,0,0-18.39-18.39H514.13l-4.77.63" transform="translate(-0.5 0.5)"/><rect class="cls-8" x="495.12" y="329.04" width="153.23" height="36.78" rx="18.39" transform="translate(1142.96 695.36) rotate(180)"/><rect class="cls-7" x="54.82" y="377.24" width="123.2" height="36.78" rx="18.39"/><rect class="cls-8" x="495.75" y="278.73" width="171.01" height="36.78" rx="18.39" transform="translate(1162.01 594.74) rotate(180)"/><rect class="cls-7" x="25.96" y="323.54" width="155.72" height="40.54" rx="18.39" transform="translate(207.14 688.13) rotate(180)"/><rect class="cls-7" x="7.28" y="275.04" width="171.01" height="38.25" rx="18.39" transform="translate(185.07 588.83) rotate(180)"/><rect class="cls-8" x="60.34" y="377.24" width="123.2" height="36.78" rx="18.39"/><rect class="cls-8" x="30.95" y="326.41" width="153.23" height="36.78" rx="18.39"/><rect class="cls-8" x="12.53" y="276.1" width="171.01" height="36.78" rx="18.39"/><path class="cls-9" d="M478.76,289.7c26.64,0,48.24,20.53,48.24,45.85s-21.6,45.86-48.24,45.86" transform="translate(-0.5 0.5)"/><rect class="cls-10" x="453.94" y="283.75" width="38.06" height="103.18" rx="6.31"/><path class="cls-9" d="M197.54,289.7c-26.26,0-47.54,20.53-47.54,45.85s21.28,45.86,47.54,45.86" transform="translate(-0.5 0.5)"/><rect class="cls-10" x="183.8" y="283.25" width="38.06" height="103.18" rx="6.31" transform="translate(405.15 670.17) rotate(180)"/><path class="cls-6" d="M176.5,295.5C189,213.79,260,153,342.17,153.12c83.1.13,154.39,62.49,165.6,145.33" transform="translate(-0.5 0.5)"/><path class="cls-6" d="M507.68,370c1.49,15.91-2.51,26.3-5.42,31.87-13.89,26.59-52.94,39.14-96.45,28.2" transform="translate(-0.5 0.5)"/><ellipse class="cls-10" cx="387.34" cy="431.36" rx="26.43" ry="9.31"/><path class="cls-7" d="M252.08,437.42a28.35,28.35,0,0,0,7.34,29.42c11.12,10.43,25.83,6.67,26.68,6.44a42.54,42.54,0,0,1-18.81-8.75C255.24,454.67,252.66,441.16,252.08,437.42Z" transform="translate(-0.5 0.5)"/></g></svg>