<!-- Generator: Adobe Illustrator 24.0.2, SVG Export Plug-In  -->
<svg version="1.1" xmlns="http://www.w3.org/2000/svg" xmlns:xlink="http://www.w3.org/1999/xlink" x="0px" y="0px"
	 width="666.28px" height="384.88px" viewBox="0 0 666.28 384.88" style="enable-background:new 0 0 666.28 384.88;"
	 xml:space="preserve">
<style type="text/css">
	.st0{fill:#754C24;}
	.st1{fill:#FFFFFF;}
	.st2{fill:#999999;stroke:#E6E6E6;stroke-miterlimit:10;}
	.st3{fill:#F2F2F2;stroke:#F2F2F2;stroke-miterlimit:10;}
	.st4{fill:none;stroke:#000000;stroke-width:3;stroke-miterlimit:10;}
	.st5{fill:#999999;stroke:#FFFFFF;stroke-miterlimit:10;}
	.st6{fill:#FFFFFF;stroke:#FFFFFF;stroke-width:3;stroke-miterlimit:10;}
	.st7{fill:#006EF4;stroke:#000000;stroke-width:3;stroke-miterlimit:10;}
	.st8{stroke:#000000;stroke-width:3;stroke-miterlimit:10;}
</style>
<defs>
</defs>
<path class="st0" d="M237.95,150.32c55.24,0,110.49,0,165.73,0c3.94,2.59,9.36,6.8,14.49,13.2c5.4,6.74,8.39,13.3,10.05,17.86
	c0-20.33,0-40.67,0-61c0-2.65-0.34-11.63-6.96-20c-6.67-8.43-15.39-10.75-17.95-11.34h-137.8c0,0-27.56-1.91-27.56,28.73V150.32z"/>
<path class="st1" d="M237.99,115.7c-2.86,0.07-0.76,40.79-0.76,40.79c-0.03,29.22,0.19,76.11,0.76,146.78
	c0,0,3.66,23.91,23.78,23.91c20.13,0,142.71,0,142.71,0s22.87-1.84,22.87-22.99s0-125.96,0-125.96c0.02-1.57-0.07-14.11-10.22-22.05
	c-6.59-5.16-13.76-5.52-16.3-5.53c-112.29-0.02-137.08-0.01-137.22,0c0,0,0,0,0,0c-4.19,1.33-9.69,2.25-14.38-0.26
	C236.33,143.48,238.8,115.69,237.99,115.7z"/>
<path class="st2" d="M426.22,293.38c46.78,8.79,77.76,24.13,77.76,41.59c0,27.29-75.74,49.41-169.18,49.41
	s-169.18-22.12-169.18-49.41c0-16.49,27.67-31.1,70.19-40.08"/>
<path class="st3" d="M426.82,292.94c46.78,8.01,77.76,22,77.76,37.91c0,24.88-75.74,45.05-169.18,45.05s-169.18-20.17-169.18-45.05
	c0-15.04,27.67-28.36,70.19-36.54"/>
<path class="st1" d="M237.95,117.54c-0.88,0.01-1.16,46.23,0,187.56c0,0,3.68,23.91,23.91,23.91s143.43,0,143.43,0
	c2.84-0.67,11.74-3.17,17.94-11.63c3.13-4.28,4.45-8.55,5.05-11.35c0-41.99,0-83.97,0-125.96c0-2.11-0.22-5.16-1.31-8.64
	c0,0-0.07-0.21-0.14-0.43c-1.07-3.24-4.62-10.51-9.6-14.62c-4.92-4.05-10.87-4.72-15-5c-13.69-0.92-66.82-1.5-139-1
	c-4.12,1.44-8.5,1.98-12.4,0.26C237.7,144.88,238.76,117.53,237.95,117.54z"/>
<path class="st4" d="M427.35,147.88c0-10.8,0-21.6,0-32.4c0-14.1-10.33-25.53-23.06-25.53H261.01c-12.74,0-23.06,11.43-23.06,25.53
	v187.08c0,14.1,10.33,25.53,23.06,25.53h143.27c12.74,0,23.06-11.43,23.06-25.53V176.55c0-14.1-10.33-25.53-23.06-25.53
	c-51.77,0-103.54,0-155.31,0"/>
<path class="st5" d="M499.34,259.34c1.11,1.51,3.8,4.72,8.34,6.28c2.13,0.73,4.05,0.89,5.47,0.87h86.43
	c10.16,0,18.39-8.64,18.39-19.31v0c0-10.66-8.23-19.31-18.39-19.31h-86.43c-1.59,0.22-3.19,0.44-4.78,0.66"/>
<path class="st5" d="M629.62,175.38H510.68c-10.16,0-18.39,8.23-18.39,18.39v3.76c0,10.16,8.23,18.39,18.39,18.39h118.94
	c10.16,0,18.39-8.23,18.39-18.39v-3.76C648.01,183.61,639.78,175.38,629.62,175.38z"/>
<path class="st5" d="M647.39,126.74H513.15c-10.16,0-18.39,8.23-18.39,18.39v1.47c0,10.16,8.23,18.39,18.39,18.39h134.24
	c10.16,0,18.39-8.23,18.39-18.39v-1.47C665.78,134.97,657.54,126.74,647.39,126.74z"/>
<path class="st6" d="M492.72,256.88c0.99,1.55,3.86,5.56,9.17,7.32c2.11,0.7,4.02,0.85,5.47,0.83h86.43
	c10.16,0,18.39-8.23,18.39-18.39v0c0-10.16-8.23-18.39-18.39-18.39h-86.43c-1.59,0.21-3.19,0.42-4.78,0.63"/>
<path class="st6" d="M623.18,177.42H506.73c-10.16,0-18.39,8.23-18.39,18.39v0c0,10.16,8.23,18.39,18.39,18.39h116.45
	c10.16,0,18.39-8.23,18.39-18.39v0C641.57,185.65,633.33,177.42,623.18,177.42z"/>
<path class="st5" d="M66.93,225.12h86.43c10.16,0,18.39,8.23,18.39,18.39v0c0,10.16-8.23,18.39-18.39,18.39H66.93
	c-10.16,0-18.39-8.23-18.39-18.39v0C48.55,233.35,56.78,225.12,66.93,225.12z"/>
<path class="st6" d="M641.59,127.11H507.36c-10.16,0-18.39,8.23-18.39,18.39v0c0,10.16,8.23,18.39,18.39,18.39h134.24
	c10.16,0,18.39-8.23,18.39-18.39v0C659.98,135.34,651.75,127.11,641.59,127.11z"/>
<path class="st5" d="M156.51,171.92H37.57c-10.16,0-18.39,8.23-18.39,18.39v3.76c0,10.16,8.23,18.39,18.39,18.39h118.94
	c10.16,0,18.39-8.23,18.39-18.39v-3.76C174.9,180.15,166.67,171.92,156.51,171.92z"/>
<path class="st5" d="M153.13,123.42H18.89c-10.16,0-18.39,8.23-18.39,18.39v1.47c0,10.16,8.23,18.39,18.39,18.39h134.24
	c10.16,0,18.39-8.23,18.39-18.39v-1.47C171.51,131.65,163.28,123.42,153.13,123.42z"/>
<path class="st6" d="M72.45,225.12h86.43c10.16,0,18.39,8.23,18.39,18.39v0c0,10.16-8.23,18.39-18.39,18.39H72.45
	c-10.16,0-18.39-8.23-18.39-18.39v0C54.06,233.35,62.29,225.12,72.45,225.12z"/>
<path class="st6" d="M43.06,174.29h116.45c10.16,0,18.39,8.23,18.39,18.39v0c0,10.16-8.23,18.39-18.39,18.39H43.06
	c-10.16,0-18.39-8.23-18.39-18.39v0C24.67,182.52,32.9,174.29,43.06,174.29z"/>
<path class="st6" d="M24.64,123.98h134.24c10.16,0,18.39,8.23,18.39,18.39v0c0,10.16-8.23,18.39-18.39,18.39H24.64
	c-10.16,0-18.39-8.23-18.39-18.39v0C6.25,132.21,14.48,123.98,24.64,123.98z"/>
<g>
	<path class="st7" d="M471.98,138.08c26.64,0,48.24,20.53,48.24,45.86s-21.6,45.86-48.24,45.86"/>
	<path class="st8" d="M479.42,234.8h-25.44c-3.48,0-6.31-2.82-6.31-6.31v-90.56c0-3.48,2.82-6.31,6.31-6.31h25.44
		c3.48,0,6.31,2.82,6.31,6.31v90.56C485.73,231.98,482.9,234.8,479.42,234.8z"/>
	<path class="st7" d="M190.76,138.08c-26.26,0-47.54,20.53-47.54,45.86s21.28,45.86,47.54,45.86"/>
	<path class="st8" d="M183.33,234.8h25.44c3.48,0,6.31-2.82,6.31-6.31v-90.56c0-3.48-2.82-6.31-6.31-6.31h-25.44
		c-3.48,0-6.31,2.82-6.31,6.31v90.56C177.02,231.98,179.84,234.8,183.33,234.8z"/>
	<path class="st4" d="M169.72,143.88C182.26,62.17,253.22,1.38,335.39,1.5C418.49,1.62,489.79,63.99,501,146.83"/>
</g>
<path class="st4" d="M500.9,218.38c1.49,15.91-2.51,26.3-5.42,31.87c-13.88,26.59-52.94,39.14-96.45,28.2"/>
<ellipse class="st8" cx="381.06" cy="279.24" rx="26.43" ry="9.31"/>
<path class="st5" d="M245.3,285.8c-3.41,10.53-0.54,22.04,7.34,29.42c11.12,10.42,25.83,6.67,26.68,6.44
	c-4.12-0.8-11.61-2.86-18.81-8.75C248.46,303.04,245.89,289.54,245.3,285.8z"/>
</svg>
